# xmcd
# 
# Track frame offsets:
#     150
#     20365
#     44817
#     68047
#     86575
#     105997
#     123735
#     148082
#     156785
#     172962
# 
# Disc length: 2573
# 
# Revision: 3
# Processed by: cddbd v1.5.2PL0 Copyright (c) Steve Scherf et al.
# Submitted via: BonkEnc v1.0.5
# 
DISCID=840a0b0a
DTITLE=坂本龍一 - 未来派野郎
DYEAR=2004
DGENRE=Techno
TTITLE0=Broadway Booie Woogie
TTITLE1=黄土高原
TTITLE2=BALLET MECANIQUA
TTITLE3=G.T.?
TTITLE4=Milan,1909
TTITLE5=Variety Show
TTITLE6=大航海 Verso lo Schermo
TTITLE7=Water is Life
TTITLE8=Parolibre
TTITLE9=G.T.
EXTD=YEAR: 2004 ID3G: 18
EXTT0=
EXTT1=
EXTT2=
EXTT3=
EXTT4=
EXTT5=
EXTT6=
EXTT7=
EXTT8=
EXTT9=
PLAYORDER=
